<?xml version="1.0" standalone="no"?>
<!DOCTYPE svg PUBLIC "-//W3C//DTD SVG 20010904//EN"
 "http://www.w3.org/TR/2001/REC-SVG-20010904/DTD/svg10.dtd">
<svg version="1.0" xmlns="http://www.w3.org/2000/svg"
 width="724.660367pt" height="919.176472pt" viewBox="0 0 724.660367 919.176472"
 preserveAspectRatio="xMidYMid meet">
<g transform="translate(-207.339633,1124.655036) scale(0.100000,-0.100000)"
fill="#000000" stroke="none">
<path d="M5140 11239 c-734 -67 -1396 -374 -1920 -890 -109 -108 -178 -182
-235 -254 -22 -27 -43 -52 -46 -55 -6 -6 -67 -88 -89 -120 -8 -12 -34 -48 -57
-81 -24 -32 -43 -60 -43 -63 0 -2 -18 -30 -39 -62 -89 -134 -229 -415 -306
-614 -10 -25 -21 -54 -26 -65 -28 -66 -98 -291 -139 -450 -138 -538 -176
-1003 -165 -2060 8 -770 17 -946 64 -1295 24 -179 91 -510 121 -600 5 -14 16
-52 25 -85 20 -68 30 -98 81 -245 20 -58 42 -118 50 -135 7 -16 22 -52 33 -80
10 -27 46 -106 80 -175 136 -279 244 -446 487 -750 40 -51 173 -189 270 -279
320 -302 779 -566 1206 -695 150 -45 378 -93 538 -112 157 -18 474 -25 645
-13 562 39 1281 237 1800 496 527 263 898 582 1204 1033 300 442 486 913 576
1460 34 206 33 210 -7 210 -79 -1 -821 -69 -828 -77 -4 -4 -22 -80 -39 -168
-111 -552 -322 -1010 -595 -1294 -202 -208 -461 -358 -839 -486 -385 -130
-774 -193 -1120 -182 -205 6 -351 31 -521 87 -429 144 -714 394 -1013 890 -44
74 -173 330 -173 344 0 3 -11 29 -24 58 -27 60 -116 321 -141 413 -54 202 -94
412 -131 690 -15 113 -18 243 -21 975 -4 725 -2 873 12 1045 50 591 168 1047
380 1464 193 379 464 695 763 888 473 306 1056 370 1772 193 608 -151 1013
-403 1270 -792 221 -334 368 -751 441 -1255 6 -46 14 -83 18 -83 3 -1 198 -20
434 -43 l427 -43 0 36 c0 55 -18 200 -45 370 -70 431 -225 868 -436 1226 -188
320 -389 563 -655 793 -524 455 -1364 795 -2249 912 -180 23 -626 34 -795 18z"/>
<path d="M6211 8789 c-328 -29 -648 -156 -878 -347 -189 -158 -376 -401 -508
-658 -158 -310 -242 -623 -267 -999 -13 -195 -4 -629 16 -780 59 -449 229
-852 502 -1193 226 -282 506 -461 853 -543 369 -88 885 -56 1261 79 474 171
893 560 1075 997 38 93 80 261 89 358 l7 68 -63 -6 c-35 -3 -171 -10 -303 -16
-132 -6 -241 -12 -243 -13 -1 -2 -7 -32 -13 -67 -14 -87 -53 -201 -95 -276
-35 -64 -133 -191 -176 -229 -109 -97 -254 -187 -383 -239 -186 -75 -478 -101
-710 -64 -317 51 -591 285 -739 629 -103 240 -167 609 -166 963 1 387 54 719
157 987 108 281 305 510 542 630 116 58 233 82 426 87 150 4 185 2 301 -20
230 -43 396 -127 545 -276 96 -97 174 -207 226 -320 41 -88 93 -283 93 -346 0
-24 5 -47 11 -50 6 -4 97 -11 202 -16 106 -4 241 -11 300 -14 l108 -5 -6 72
c-10 114 -25 216 -46 303 -87 370 -330 728 -651 958 -116 84 -330 191 -468
235 -313 100 -671 140 -999 111z"/>
</g>
</svg>
